<svg width="31" height="29" viewBox="0 0 31 29" fill="none" xmlns="http://www.w3.org/2000/svg">
<path d="M2.71997 9.56474L8.62753 14.6469L0.822824 15.46L0 18.0182L11.3724 17.102L12.2878 14.2582L3.5428 7.00781L2.71997 9.56606V9.56474Z" fill="white"/>
<path d="M14.551 0.0991993L11.5483 7.29139L8.36314 0.113743L5.67765 0.120352L10.0634 10.6627L13.0489 10.6548L17.2377 0.0925903L14.5522 0.0991993H14.551Z" fill="white"/>
<path d="M27.2048 8.43759L19.4412 7.80168L25.2774 2.55297L24.4411 0L15.7779 7.43148L16.7065 10.2713L28.0381 10.9919L27.2021 8.43891L27.2048 8.43759Z" fill="white"/>
<path d="M23.192 23.0552L21.3968 15.469L28.188 19.4022L30.3558 17.817L20.6162 11.8676L18.2053 13.63L21.023 24.639L23.1908 23.0538L23.192 23.0552Z" fill="white"/>
<path d="M8.05829 23.7545L14.7122 19.7023L13.0729 27.3823L15.2488 28.9556L17.892 17.8474L15.4718 16.0969L5.88147 22.1798L8.05709 23.7531L8.05829 23.7545Z" fill="white"/>
</svg>
