<svg width="123" height="123" viewBox="0 0 123 123" fill="none" xmlns="http://www.w3.org/2000/svg">
<path d="M123 123H0V0L123 123Z" fill="#019EDB"/>
<path d="M14.5713 100.674V96.8594C14.5713 96.5085 14.4984 96.2054 14.3525 95.9502C14.2067 95.695 13.9925 95.499 13.71 95.3623C13.4274 95.2256 13.0788 95.1572 12.6641 95.1572C12.2812 95.1572 11.9395 95.2256 11.6387 95.3623C11.3424 95.4945 11.1077 95.6745 10.9346 95.9023C10.766 96.1257 10.6816 96.374 10.6816 96.6475L9.86133 96.6406C9.86133 96.3626 9.92969 96.0938 10.0664 95.834C10.2031 95.5742 10.3968 95.3418 10.6475 95.1367C10.8981 94.9316 11.1966 94.7699 11.543 94.6514C11.8939 94.5283 12.279 94.4668 12.6982 94.4668C13.2269 94.4668 13.6917 94.5557 14.0928 94.7334C14.4984 94.9111 14.8151 95.1777 15.043 95.5332C15.2708 95.8887 15.3848 96.3353 15.3848 96.873V100.448C15.3848 100.703 15.403 100.968 15.4395 101.241C15.4805 101.515 15.5374 101.74 15.6104 101.918V102H14.7422C14.6875 101.836 14.6442 101.631 14.6123 101.385C14.585 101.134 14.5713 100.897 14.5713 100.674ZM14.7627 97.6934L14.7764 98.3223H13.1699C12.7507 98.3223 12.3747 98.361 12.042 98.4385C11.7139 98.5114 11.4359 98.6208 11.208 98.7666C10.9801 98.9079 10.8047 99.0788 10.6816 99.2793C10.5632 99.4798 10.5039 99.7077 10.5039 99.9629C10.5039 100.227 10.57 100.469 10.7021 100.688C10.8389 100.906 11.0303 101.082 11.2764 101.214C11.527 101.341 11.8232 101.405 12.165 101.405C12.6208 101.405 13.0218 101.321 13.3682 101.152C13.7191 100.984 14.0085 100.763 14.2363 100.489C14.4642 100.216 14.6169 99.9173 14.6943 99.5938L15.0498 100.065C14.9906 100.293 14.8812 100.528 14.7217 100.77C14.5667 101.007 14.3639 101.23 14.1133 101.439C13.8626 101.645 13.5664 101.813 13.2246 101.945C12.8874 102.073 12.5046 102.137 12.0762 102.137C11.5931 102.137 11.1715 102.046 10.8115 101.863C10.4561 101.681 10.1781 101.433 9.97754 101.118C9.78158 100.799 9.68359 100.439 9.68359 100.038C9.68359 99.6735 9.76107 99.3477 9.91602 99.0605C10.071 98.7689 10.2943 98.5228 10.5859 98.3223C10.8822 98.1172 11.2376 97.9622 11.6523 97.8574C12.0716 97.748 12.541 97.6934 13.0605 97.6934H14.7627ZM10.8799 108.025V116.844H10.0596V106.604H10.8252L10.8799 108.025ZM16.0205 110.233V110.377C16.0205 110.928 15.9567 111.434 15.8291 111.895C15.7015 112.355 15.5169 112.754 15.2754 113.091C15.0384 113.424 14.7445 113.681 14.3936 113.863C14.0426 114.046 13.6439 114.137 13.1973 114.137C12.7552 114.137 12.361 114.068 12.0146 113.932C11.6683 113.795 11.3698 113.601 11.1191 113.351C10.873 113.095 10.6748 112.799 10.5244 112.462C10.3786 112.12 10.276 111.746 10.2168 111.341V109.447C10.2852 109.001 10.3968 108.595 10.5518 108.23C10.7067 107.866 10.9049 107.551 11.1465 107.287C11.3926 107.023 11.6842 106.82 12.0215 106.679C12.3587 106.537 12.7438 106.467 13.1768 106.467C13.6279 106.467 14.029 106.556 14.3799 106.733C14.7354 106.907 15.0339 107.16 15.2754 107.492C15.5215 107.82 15.7061 108.217 15.8291 108.682C15.9567 109.142 16.0205 109.659 16.0205 110.233ZM15.2002 110.377V110.233C15.2002 109.8 15.1546 109.399 15.0635 109.03C14.9769 108.661 14.8424 108.34 14.6602 108.066C14.4824 107.788 14.2546 107.572 13.9766 107.417C13.7031 107.262 13.3773 107.185 12.999 107.185C12.6071 107.185 12.2721 107.251 11.9941 107.383C11.7207 107.51 11.4928 107.681 11.3105 107.896C11.1283 108.105 10.9847 108.335 10.8799 108.586C10.7751 108.837 10.6976 109.083 10.6475 109.324V111.505C10.734 111.851 10.873 112.173 11.0645 112.469C11.2559 112.76 11.5111 112.995 11.8301 113.173C12.1536 113.346 12.5479 113.433 13.0127 113.433C13.3864 113.433 13.71 113.355 13.9834 113.2C14.2568 113.045 14.4824 112.829 14.6602 112.551C14.8424 112.273 14.9769 111.949 15.0635 111.58C15.1546 111.211 15.2002 110.81 15.2002 110.377ZM18.6523 107.827V114H17.8389V106.604H18.6318L18.6523 107.827ZM21.2705 106.549L21.25 107.301C21.1589 107.287 21.07 107.276 20.9834 107.267C20.8968 107.257 20.8034 107.253 20.7031 107.253C20.3477 107.253 20.0355 107.319 19.7666 107.451C19.5023 107.579 19.279 107.759 19.0967 107.991C18.9144 108.219 18.7754 108.488 18.6797 108.798C18.584 109.103 18.5293 109.431 18.5156 109.782L18.2148 109.898C18.2148 109.415 18.265 108.966 18.3652 108.552C18.4655 108.137 18.6182 107.775 18.8232 107.465C19.0329 107.15 19.2949 106.907 19.6094 106.733C19.9284 106.556 20.3021 106.467 20.7305 106.467C20.8353 106.467 20.9378 106.476 21.0381 106.494C21.1429 106.508 21.2204 106.526 21.2705 106.549ZM21.9678 110.418V110.192C21.9678 109.655 22.0452 109.158 22.2002 108.702C22.3551 108.246 22.5762 107.852 22.8633 107.52C23.1549 107.187 23.5036 106.929 23.9092 106.747C24.3148 106.56 24.766 106.467 25.2627 106.467C25.764 106.467 26.2174 106.56 26.623 106.747C27.0286 106.929 27.3773 107.187 27.6689 107.52C27.9606 107.852 28.1839 108.246 28.3389 108.702C28.4938 109.158 28.5713 109.655 28.5713 110.192V110.418C28.5713 110.956 28.4938 111.452 28.3389 111.908C28.1839 112.359 27.9606 112.751 27.6689 113.084C27.3818 113.417 27.0355 113.676 26.6299 113.863C26.2243 114.046 25.7731 114.137 25.2764 114.137C24.7751 114.137 24.3216 114.046 23.916 113.863C23.5104 113.676 23.1618 113.417 22.8701 113.084C22.5785 112.751 22.3551 112.359 22.2002 111.908C22.0452 111.452 21.9678 110.956 21.9678 110.418ZM22.7812 110.192V110.418C22.7812 110.824 22.8359 111.209 22.9453 111.573C23.0547 111.933 23.2142 112.255 23.4238 112.537C23.6335 112.815 23.8932 113.034 24.2031 113.193C24.513 113.353 24.8708 113.433 25.2764 113.433C25.6774 113.433 26.0306 113.353 26.3359 113.193C26.6458 113.034 26.9056 112.815 27.1152 112.537C27.3249 112.255 27.4821 111.933 27.5869 111.573C27.6963 111.209 27.751 110.824 27.751 110.418V110.192C27.751 109.791 27.6963 109.411 27.5869 109.051C27.4821 108.691 27.3226 108.369 27.1084 108.087C26.8988 107.804 26.639 107.581 26.3291 107.417C26.0192 107.253 25.6637 107.171 25.2627 107.171C24.8617 107.171 24.5062 107.253 24.1963 107.417C23.891 107.581 23.6312 107.804 23.417 108.087C23.2074 108.369 23.0479 108.691 22.9385 109.051C22.8337 109.411 22.7812 109.791 22.7812 110.192ZM30.3281 106.604H31.1484V114.882C31.1484 115.333 31.0732 115.716 30.9229 116.03C30.7725 116.345 30.5537 116.582 30.2666 116.741C29.9795 116.905 29.6263 116.987 29.207 116.987C29.0931 116.987 28.9701 116.976 28.8379 116.953C28.7057 116.93 28.585 116.898 28.4756 116.857L28.4893 116.174C28.5713 116.197 28.6693 116.217 28.7832 116.235C28.8926 116.258 28.9997 116.27 29.1045 116.27C29.3688 116.27 29.5921 116.217 29.7744 116.112C29.9567 116.012 30.0934 115.859 30.1846 115.654C30.2803 115.449 30.3281 115.192 30.3281 114.882V106.604ZM30.1846 104.464C30.1846 104.309 30.2347 104.179 30.335 104.074C30.4352 103.965 30.5719 103.91 30.7451 103.91C30.9183 103.91 31.055 103.965 31.1553 104.074C31.2601 104.179 31.3125 104.309 31.3125 104.464C31.3125 104.614 31.2601 104.744 31.1553 104.854C31.055 104.958 30.9183 105.011 30.7451 105.011C30.5719 105.011 30.4352 104.958 30.335 104.854C30.2347 104.744 30.1846 104.614 30.1846 104.464ZM36.3232 114.137C35.8402 114.137 35.3958 114.048 34.9902 113.87C34.5892 113.692 34.2383 113.442 33.9375 113.118C33.6413 112.795 33.4111 112.412 33.2471 111.97C33.0876 111.523 33.0078 111.035 33.0078 110.507V110.213C33.0078 109.643 33.0921 109.128 33.2607 108.668C33.4294 108.208 33.6618 107.813 33.958 107.485C34.2542 107.157 34.5915 106.907 34.9697 106.733C35.3525 106.556 35.7536 106.467 36.1729 106.467C36.6423 106.467 37.0592 106.551 37.4238 106.72C37.7884 106.884 38.0938 107.118 38.3398 107.424C38.5905 107.725 38.7796 108.082 38.9072 108.497C39.0348 108.907 39.0986 109.361 39.0986 109.857V110.356H33.5V109.659H38.2852V109.563C38.276 109.149 38.1917 108.761 38.0322 108.401C37.8773 108.037 37.6449 107.741 37.335 107.513C37.0251 107.285 36.6377 107.171 36.1729 107.171C35.8265 107.171 35.5075 107.244 35.2158 107.39C34.9287 107.535 34.6803 107.745 34.4707 108.019C34.2656 108.287 34.1061 108.609 33.9922 108.982C33.8828 109.352 33.8281 109.762 33.8281 110.213V110.507C33.8281 110.917 33.8874 111.3 34.0059 111.655C34.1289 112.006 34.3021 112.316 34.5254 112.585C34.7533 112.854 35.0221 113.063 35.332 113.214C35.6419 113.364 35.9837 113.439 36.3574 113.439C36.7949 113.439 37.1823 113.36 37.5195 113.2C37.8568 113.036 38.1598 112.779 38.4287 112.428L38.9414 112.824C38.7819 113.061 38.5814 113.28 38.3398 113.48C38.1029 113.681 37.818 113.84 37.4854 113.959C37.1527 114.077 36.7653 114.137 36.3232 114.137ZM43.4395 113.433C43.7858 113.433 44.1094 113.369 44.4102 113.241C44.7155 113.109 44.9661 112.915 45.1621 112.66C45.3626 112.4 45.4766 112.084 45.5039 111.71H46.2832C46.2604 112.179 46.1169 112.599 45.8525 112.968C45.5928 113.332 45.251 113.619 44.8271 113.829C44.4079 114.034 43.9453 114.137 43.4395 114.137C42.9245 114.137 42.4688 114.043 42.0723 113.856C41.6803 113.67 41.3522 113.41 41.0879 113.077C40.8236 112.74 40.623 112.348 40.4863 111.901C40.3542 111.45 40.2881 110.965 40.2881 110.445V110.158C40.2881 109.639 40.3542 109.156 40.4863 108.709C40.623 108.258 40.8236 107.866 41.0879 107.533C41.3522 107.196 41.6803 106.934 42.0723 106.747C42.4642 106.56 42.9176 106.467 43.4326 106.467C43.9613 106.467 44.4352 106.574 44.8545 106.788C45.2783 107.002 45.6156 107.305 45.8662 107.697C46.1214 108.089 46.2604 108.554 46.2832 109.092H45.5039C45.4811 108.695 45.3763 108.354 45.1895 108.066C45.0026 107.779 44.7565 107.558 44.4512 107.403C44.1458 107.248 43.8063 107.171 43.4326 107.171C43.0133 107.171 42.6556 107.253 42.3594 107.417C42.0632 107.576 41.8216 107.798 41.6348 108.08C41.4525 108.358 41.318 108.677 41.2314 109.037C41.1449 109.393 41.1016 109.766 41.1016 110.158V110.445C41.1016 110.842 41.1426 111.22 41.2246 111.58C41.3112 111.936 41.4456 112.252 41.6279 112.53C41.8148 112.808 42.0563 113.029 42.3525 113.193C42.6533 113.353 43.0156 113.433 43.4395 113.433ZM50.7266 106.604V107.273H47.0215V106.604H50.7266ZM48.3818 104.703H49.1953V112.202C49.1953 112.544 49.2409 112.801 49.332 112.975C49.4232 113.148 49.5417 113.264 49.6875 113.323C49.8333 113.382 49.9906 113.412 50.1592 113.412C50.2822 113.412 50.4007 113.405 50.5146 113.392C50.6286 113.373 50.7311 113.355 50.8223 113.337L50.8564 114.027C50.7562 114.059 50.6263 114.084 50.4668 114.103C50.3073 114.125 50.1478 114.137 49.9883 114.137C49.6738 114.137 49.3958 114.08 49.1543 113.966C48.9128 113.847 48.7236 113.647 48.5869 113.364C48.4502 113.077 48.3818 112.688 48.3818 112.195V104.703Z" fill="white"/>
<path d="M19 98.8227V93.1277H20.806V98.8227C20.806 100.11 21.5392 100.968 22.6393 100.968C23.7394 100.968 24.4582 100.122 24.4582 98.8227V93.1277H26.2639V98.8227C26.2639 100.955 24.7844 102.438 22.6393 102.438C20.4946 102.438 19 100.955 19 98.8227Z" fill="white"/>
<path d="M27.5385 93.1277H29.4815L33.4994 99.542V93.1277H35.312V102.311H33.369L29.3511 95.8963V102.311H27.5385V93.1277Z" fill="white"/>
<path d="M43.8541 96.2237C43.8541 95.1052 43.3122 94.4681 42.3508 94.4681C41.3895 94.4681 40.7028 95.1692 40.7028 96.0681L38.7523 95.9381C38.7523 94.2485 40.2556 93 42.2987 93C44.3421 93 45.8046 94.2997 45.8046 96.1724C45.8046 97.9408 44.4869 99.4894 41.7978 100.84H46.0159V102.31H38.7673V100.84C42.8149 98.6675 43.8559 97.7193 43.8559 96.2255L43.8541 96.2237Z" fill="white"/>
<path d="M46.9077 100.269H49.2014V102.31H46.9077V100.269Z" fill="white"/>
<path d="M49.4568 97.719C49.4568 94.7678 50.9556 93 53.4711 93C55.9864 93 57.4851 94.766 57.4851 97.719C57.4851 100.672 55.9882 102.438 53.4711 102.438C50.9538 102.438 49.4568 100.672 49.4568 97.719ZM53.4711 100.98C54.7607 100.98 55.555 99.7426 55.555 97.719C55.555 95.6953 54.7589 94.4574 53.4711 94.4574C52.1831 94.4574 51.3869 95.6953 51.3869 97.719C51.3869 99.7426 52.1831 100.98 53.4711 100.98Z" fill="white"/>
</svg>
